<svg width="144" height="144" viewBox="0 0 144 144" fill="none" xmlns="http://www.w3.org/2000/svg">
<path d="M51.75 101.812H35.4375V85.5C35.4375 84.8812 34.9313 84.375 34.3125 84.375H27.5625C26.9437 84.375 26.4375 84.8812 26.4375 85.5V101.812H10.125C9.50625 101.812 9 102.319 9 102.938V109.688C9 110.306 9.50625 110.812 10.125 110.812H26.4375V127.125C26.4375 127.744 26.9437 128.25 27.5625 128.25H34.3125C34.9313 128.25 35.4375 127.744 35.4375 127.125V110.812H51.75C52.3688 110.812 52.875 110.306 52.875 109.688V102.938C52.875 102.319 52.3688 101.812 51.75 101.812Z" fill="#EEEEEE"/>
<path d="M128.25 42.5109L110.25 52.875V31.5C110.25 26.5359 106.214 22.5 101.25 22.5H18C13.0359 22.5 9 26.5359 9 31.5V81H19.125V32.625H100.125V111.375H63V121.5H101.25C106.214 121.5 110.25 117.464 110.25 112.5V91.125L128.25 101.489C131.245 103.219 135 101.053 135 97.6078V46.4062C135 42.9469 131.245 40.7812 128.25 42.5109ZM124.875 87.8906L110.25 79.4813V64.5328L124.875 56.1094V87.8906Z" fill="#EEEEEE"/>
<path d="M45 50.625C45.6188 50.625 46.125 50.1188 46.125 49.5V42.75C46.125 42.1312 45.6188 41.625 45 41.625H29.25C28.6312 41.625 28.125 42.1312 28.125 42.75V49.5C28.125 50.1188 28.6312 50.625 29.25 50.625H45Z" fill="#EEEEEE"/>
</svg>
