<svg width="12" height="12" viewBox="0 0 12 12" fill="none" xmlns="http://www.w3.org/2000/svg">
<path d="M5.99996 0.166687C2.78413 0.166687 0.166626 2.78419 0.166626 6.00002C0.166626 9.21585 2.78413 11.8334 5.99996 11.8334C9.21579 11.8334 11.8333 9.21585 11.8333 6.00002C11.8333 2.78419 9.21579 0.166687 5.99996 0.166687ZM5.99996 10.1667C3.70246 10.1667 1.83329 8.29752 1.83329 6.00002C1.83329 3.70252 3.70246 1.83335 5.99996 1.83335C8.29746 1.83335 10.1666 3.70252 10.1666 6.00002C10.1666 8.29752 8.29746 10.1667 5.99996 10.1667Z" fill="#424242"/>
<path d="M6 3.5C4.64417 3.5 3.5 4.64417 3.5 6C3.5 7.35583 4.64417 8.5 6 8.5C7.35583 8.5 8.5 7.35583 8.5 6C8.5 4.64417 7.35583 3.5 6 3.5Z" fill="#424242"/>
</svg>
