<svg width="20" height="20" viewBox="0 0 20 20" fill="none" xmlns="http://www.w3.org/2000/svg">
<path d="M10.8333 11.25H2.49996C2.27895 11.25 2.06698 11.3378 1.9107 11.4941C1.75442 11.6504 1.66663 11.8623 1.66663 12.0833C1.66663 12.3044 1.75442 12.5163 1.9107 12.6726C2.06698 12.8289 2.27895 12.9167 2.49996 12.9167H10.8333C11.0543 12.9167 11.2663 12.8289 11.4225 12.6726C11.5788 12.5163 11.6666 12.3044 11.6666 12.0833C11.6666 11.8623 11.5788 11.6504 11.4225 11.4941C11.2663 11.3378 11.0543 11.25 10.8333 11.25ZM17.5 7.08334H2.49996C2.27895 7.08334 2.06698 7.17114 1.9107 7.32742C1.75442 7.4837 1.66663 7.69566 1.66663 7.91668C1.66663 8.13769 1.75442 8.34965 1.9107 8.50593C2.06698 8.66221 2.27895 8.75001 2.49996 8.75001H17.5C17.721 8.75001 17.9329 8.66221 18.0892 8.50593C18.2455 8.34965 18.3333 8.13769 18.3333 7.91668C18.3333 7.69566 18.2455 7.4837 18.0892 7.32742C17.9329 7.17114 17.721 7.08334 17.5 7.08334Z" fill="#424242"/>
</svg>
